#!OML:ASF I:\Actors\actors\Patient Classification 1\Patient 1\Session 1\Subject1.ASF
:FULLY-SPECIFIED
:DEGREES
502
root 0.846995 17.4516 9.32029 7.84685 -1.11166 -8.98332
lowerback -6.67389 0.595377 6.03277
upperback -8.32722 0.710738 3.02118
thorax -4.9263 0.123119 -0.206783
lowerneck -4.83452 -7.51134 -5.48655
upperneck 23.5954 -10.7272 3.67427
head 8.63506 -5.24514 1.16429
rclavicle 1.12469e-014 -1.64122e-014
rhumerus 2.77359 65.5908 -97.39
rradius 141.424
rwrist -10.0893
rhand -13.6238 -36.6004
rfingers 7.12502
rthumb 12.4918 -426.207
lclavicle 1.12469e-014 -1.64122e-014
lhumerus -53.3037 -46.9576 128.751
lradius 89.9629
lwrist 73.1642
lhand -4.05145 5.91103
lfingers 7.12502
lthumb 21.7046 34.7143
rfemur -0.309398 24.1185 27.2002
rtibia 3.99241
rfoot -14.0449 -21.8619
rtoes 0.302457
lfemur 9.53623 -41.3349 -13.9414
ltibia -4.0268
lfoot -22.0152 48.6604
ltoes 6.37934
503
root 0.846831 17.4521 9.31624 7.82346 -1.09191 -8.93785
lowerback -6.62979 0.584215 6.0268
upperback -8.36015 0.702233 3.02786
thorax -4.98696 0.117633 -0.196622
lowerneck -4.89518 -7.44315 -5.50998
upperneck 23.5728 -10.648 3.77754
head 8.64127 -5.19884 1.2081
rclavicle -2.00648e-015 -1.53064e-014
rhumerus 2.62292 65.6048 -97.5451
rradius 141.376
rwrist -10.1857
rhand -13.554 -36.3466
rfingers 7.12502
rthumb 12.5591 -425.949
lclavicle -2.00648e-015 -1.53064e-014
lhumerus -53.3726 -46.9341 128.862
lradius 89.8926
lwrist 73.3307
lhand -4.25564 5.52832
lfingers 7.12502
lthumb 21.5085 34.3541
rfemur -0.288762 24.088 27.1574
rtibia 3.99247
rfoot -14.0648 -21.8648
rtoes 0.360082
lfemur 9.55898 -41.3861 -14.0228
ltibia -4.00984
lfoot -22.0421 48.6744
ltoes 6.30777
504
root 0.846414 17.4521 9.31133 7.78776 -1.05983 -8.94254
lowerback -6.55148 0.577742 6.06211
upperback -8.38564 0.70174 3.04343
thorax -5.05882 0.114049 -0.200103
lowerneck -5.01836 -7.40127 -5.5314
upperneck 23.6181 -10.6051 3.87086
head 8.68351 -5.16846 1.24097
rclavicle 2.10172e-014 -6.67078e-014
rhumerus 2.50588 65.6301 -97.6657
rradius 141.349
rwrist -10.2055
rhand -13.4882 -36.0387
rfingers 7.12502
rthumb 12.6226 -425.637
lclavicle 2.10172e-014 -6.67078e-014
lhumerus -53.4142 -46.9498 128.93
lradius 89.8469
lwrist 73.5965
lhand -4.39234 5.44087
lfingers 7.12502
lthumb 21.3772 34.2816
rfemur -0.255874 24.1 27.1761
rtibia 3.96348
rfoot -14.0554 -21.8968
rtoes 0.512438
lfemur 9.55857 -41.3269 -13.9912
ltibia -4.02651
lfoot -21.9638 48.5937
ltoes 6.1685
505
root 0.846222 17.4523 9.30606 7.778 -1.01143 -8.95544
lowerback -6.50133 0.590087 6.1131
upperback -8.40804 0.721549 3.00712
thorax -5.10984 0.118514 -0.265864
lowerneck -5.16396 -7.38039 -5.43657
upperneck 23.6934 -10.6135 3.98412
head 8.73716 -5.14955 1.25549
rclavicle -5.16219e-015 1.32689e-014
rhumerus 2.42554 65.5939 -97.8082
rradius 141.324
rwrist -10.2032
rhand -13.4362 -35.8207
rfingers 7.12502
rthumb 12.6727 -425.416
lclavicle -5.16219e-015 1.32689e-014
lhumerus -53.5633 -47.0443 128.99
lradius 89.8477
lwrist 73.8241
lhand -4.51359 5.47106
lfingers 7.12502
lthumb 21.2607 34.325
rfemur -0.273485 24.1183 27.1888
rtibia 3.95596
rfoot -14.0431 -21.9427
rtoes 0.599152
lfemur 9.51723 -41.2788 -13.9178
ltibia -4.06992
lfoot -21.787 48.555
ltoes 6.01738
506
root 0.846171 17.4526 9.30127 7.76657 -0.966177 -8.94357
lowerback -6.4693 0.602944 6.14336
upperback -8.42007 0.740262 2.96727
thorax -5.13937 0.124064 -0.323907
lowerneck -5.22454 -7.3474 -5.37659
upperneck 23.6449 -10.6053 4.13723
head 8.73603 -5.12502 1.29583
rclavicle 6.1996e-015 -1.05853e-014
rhumerus 2.3192 65.5924 -97.9795
rradius 141.293
rwrist -10.1803
rhand -13.444 -35.6598
rfingers 7.12502
rthumb 12.6652 -425.256
lclavicle 6.1996e-015 -1.05853e-014
lhumerus -53.7457 -47.1389 129.053
lradius 89.8494
lwrist 74.0946
lhand -4.68406 5.16227
lfingers 7.12502
lthumb 21.0969 34.0346
rfemur -0.289516 24.0995 27.1776
rtibia 3.97309
rfoot -14.0219 -21.9732
rtoes 0.455382
lfemur 9.49065 -41.2951 -13.9127
ltibia -4.07431
lfoot -21.7219 48.5511
ltoes 6.0019
507
root 0.845092 17.4531 9.29632 7.72117 -0.919871 -8.93335
lowerback -6.40921 0.624055 6.15509
upperback -8.40812 0.772393 2.94903
thorax -5.15838 0.138697 -0.349293
lowerneck -5.26356 -7.31748 -5.35103
upperneck 23.5323 -10.5825 4.24649
head 8.70765 -5.10168 1.33032
rclavicle 1.34739e-014 -4.04775e-014
rhumerus 2.25821 65.6039 -98.0636
rradius 141.26
rwrist -10.2011
rhand -13.477 -35.4541
rfingers 7.12502
rthumb 12.6333 -425.052
lclavicle 1.34739e-014 -4.04775e-014
lhumerus -53.8854 -47.2728 129.122
lradius 89.823
lwrist 74.3373
lhand -4.83302 4.79446
lfingers 7.12502
lthumb 20.9538 33.6826
rfemur -0.262255 24.041 27.1853
rtibia 3.98546
rfoot -14.0294 -21.9658
rtoes 0.497205
lfemur 9.48738 -41.3191 -13.934
ltibia -4.01503
lfoot -21.8017 48.488
ltoes 6.15795
508
root 0.843504 17.454 9.29059 7.67472 -0.861477 -8.9191
lowerback -6.32014 0.653718 6.1627
upperback -8.40682 0.819257 2.92735
thorax -5.20433 0.160066 -0.375862
lowerneck -5.43283 -7.33248 -5.39284
upperneck 23.583 -10.6151 4.33923
head 8.76583 -5.10704 1.35663
rclavicle -1.20513e-015 2.61402e-014
rhumerus 2.18604 65.5679 -98.1292
rradius 141.231
rwrist -10.3374
rhand -13.4193 -35.1742
rfingers 7.12502
rthumb 12.689 -424.769
lclavicle -1.20513e-015 2.61402e-014
lhumerus -54.0231 -47.4001 129.213
lradius 89.7793
lwrist 74.4331
lhand -4.89147 4.66108
lfingers 7.12502
lthumb 20.8977 33.5555
rfemur -0.236291 23.991 27.1853
rtibia 3.9809
rfoot -14.0534 -21.9724
rtoes 0.725975
lfemur 9.54595 -41.4724 -14.0017
ltibia -4.00699
lfoot -21.9026 48.5521
ltoes 6.34698
509
root 0.841832 17.4551 9.2851 7.63812 -0.828362 -8.95971
lowerback -6.23085 0.709433 6.24657
upperback -8.42499 0.900423 2.91315
thorax -5.26996 0.193745 -0.436202
lowerneck -5.62524 -7.37408 -5.5123
upperneck 23.7352 -10.6945 4.4895
head 8.87425 -5.13365 1.40734
rclavicle -1.19271e-015 -1.54058e-014
rhumerus 2.0348 65.4856 -98.2349
rradius 141.227
rwrist -10.4598
rhand -13.1758 -34.9115
rfingers 7.12502
rthumb 12.9237 -424.491
lclavicle -1.19271e-015 -1.54058e-014
lhumerus -54.2179 -47.4921 129.377
lradius 89.7637
lwrist 74.5017
lhand -4.90554 4.68411
lfingers 7.12502
lthumb 20.8842 33.58
rfemur -0.227746 23.9612 27.2426
rtibia 3.9963
rfoot -14.0363 -21.9789
rtoes 0.688391
lfemur 9.66066 -41.6009 -14.0009
ltibia -4.12679
lfoot -21.8421 48.6822
ltoes 6.32747
510
root 0.840183 17.4551 9.28034 7.59932 -0.807197 -9.06892
lowerback -6.15604 0.780755 6.41741
upperback -8.43584 0.998451 2.89235
thorax -5.31841 0.231087 -0.551401
lowerneck -5.77629 -7.3884 -5.48333
upperneck 23.8586 -10.7442 4.58887
head 8.95184 -5.13949 1.42283
rclavicle 1.24365e-014 -3.52843e-015
rhumerus 1.81799 65.4338 -98.4603
rradius 141.239
rwrist -10.456
rhand -13.0061 -34.7349
rfingers 7.12502
rthumb 13.0873 -424.304
lclavicle 1.24365e-014 -3.52843e-015
lhumerus -54.4299 -47.6181 129.557
lradius 89.7693
lwrist 74.6441
lhand -4.96606 4.6973
lfingers 7.12502
lthumb 20.826 33.5996
rfemur -0.199005 23.9847 27.39
rtibia 3.99519
rfoot -14.0276 -21.997
rtoes 0.714949
lfemur 9.71312 -41.5535 -13.8587
ltibia -4.21622
lfoot -21.6376 48.6703
ltoes 6.04854
511
root 0.839257 17.4543 9.27531 7.57297 -0.752675 -9.1044
lowerback -6.0859 0.841431 6.53066
upperback -8.44285 1.0812 2.81568
thorax -5.35922 0.262321 -0.693474
lowerneck -5.96057 -7.40693 -5.28782
upperneck 23.98 -10.8002 4.59374
head 9.01987 -5.14213 1.37807
rclavicle -9.67833e-015 8.59744e-015
rhumerus 1.58264 65.3853 -98.7778
rradius 141.237
rwrist -10.4247
rhand -13.0789 -34.5491
rfingers 7.12502
rthumb 13.0171 -424.123
lclavicle -9.67833e-015 8.59744e-015
lhumerus -54.6383 -47.8131 129.687
lradius 89.7987
lwrist 74.8515
lhand -5.18371 4.6214
lfingers 7.12502
lthumb 20.6169 33.5465
rfemur -0.179385 23.9582 27.4476
rtibia 3.98338
rfoot -14.0245 -22.0115
rtoes 0.718019
lfemur 9.64867 -41.4438 -13.7468
ltibia -4.21507
lfoot -21.3017 48.5957
ltoes 5.60686
512
root 0.838392 17.4538 9.27024 7.55895 -0.685318 -9.02784
lowerback -6.02295 0.901336 6.52613
upperback -8.45093 1.16381 2.70435
thorax -5.3959 0.299101 -0.806657
lowerneck -6.07093 -7.44343 -5.07108
upperneck 23.9691 -10.8782 4.59511
head 9.02793 -5.15698 1.33091
rclavicle 8.74653e-015 1.65985e-014
rhumerus 1.33083 65.288 -99.0549
rradius 141.207
rwrist -10.4028
rhand -13.1393 -34.2431
rfingers 7.12502
rthumb 12.959 -423.821
lclavicle 8.74653e-015 1.65985e-014
lhumerus -54.8527 -48.0044 129.807
lradius 89.8604
lwrist 75.0009
lhand -5.42285 4.57124
lfingers 7.12502
lthumb 20.3871 33.5211
rfemur -0.188411 23.8543 27.3587
rtibia 3.99925
rfoot -14.0355 -21.9891
rtoes 0.636574
lfemur 9.52682 -41.3297 -13.7416
ltibia -4.18271
lfoot -20.9104 48.5119
ltoes 5.08596
513
root 0.836444 17.4541 9.26584 7.55013 -0.639126 -8.90926
lowerback -5.99679 0.95223 6.44511
upperback -8.44694 1.23287 2.62163
thorax -5.40021 0.335505 -0.847546
lowerneck -6.04997 -7.43113 -4.93949
upperneck 23.769 -10.8817 4.66326
head 8.95061 -5.14356 1.33574
rclavicle 1.30701e-014 -8.34896e-015
rhumerus 1.06584 65.2979 -99.2683
rradius 141.144
rwrist -10.3434
rhand -13.1977 -33.9022
rfingers 7.12502
rthumb 12.9026 -423.483
lclavicle 1.30701e-014 -8.34896e-015
lhumerus -54.99 -48.114 129.909
lradius 89.9124
lwrist 75.0534
lhand -5.49933 4.54096
lfingers 7.12502
lthumb 20.3136 33.4986
rfemur -0.191272 23.8553 27.2264
rtibia 3.9922
rfoot -14.0637 -22.0374
rtoes 0.747669
lfemur 9.44002 -41.2812 -13.8155
ltibia -4.13672
lfoot -20.8532 48.401
ltoes 5.00961
514
root 0.833724 17.4552 9.2616 7.55242 -0.600423 -8.84377
lowerback -6.03906 0.99082 6.38476
upperback -8.40972 1.27872 2.59128
thorax -5.33275 0.363284 -0.844727
lowerneck -6.06764 -7.38808 -4.90927
upperneck 23.5933 -10.8322 4.75514
head 8.89368 -5.1104 1.3684
rclavicle 7.05686e-015 1.0138e-014
rhumerus 0.95402 65.3682 -99.3036
rradius 141.1
rwrist -10.3667
rhand -13.2639 -33.6085
rfingers 7.12502
rthumb 12.8388 -423.194
lclavicle 7.05686e-015 1.0138e-014
lhumerus -55.0084 -48.2169 129.958
lradius 89.9256
lwrist 75.0546
lhand -5.44708 4.46245
lfingers 7.12502
lthumb 20.3638 33.4148
rfemur -0.208559 23.8826 27.1581
rtibia 3.98419
rfoot -14.0513 -22.1043
rtoes 0.744629
lfemur 9.38581 -41.3006 -13.8446
ltibia -4.09973
lfoot -21.0711 48.2925
ltoes 5.38391
515
root 0.830637 17.4566 9.25702 7.54482 -0.561081 -8.8721
lowerback -6.08839 1.03824 6.40484
upperback -8.35854 1.334 2.58549
thorax -5.24613 0.39275 -0.860436
lowerneck -6.19732 -7.37033 -4.88943
upperneck 23.5837 -10.8258 4.84915
head 8.9183 -5.09296 1.39204
rclavicle 8.79622e-015 -1.5207e-014
rhumerus 0.90689 65.3132 -99.2606
rradius 141.084
rwrist -10.4867
rhand -13.1528 -33.2963
rfingers 7.12502
rthumb 12.9459 -422.875
lclavicle 8.79622e-015 -1.5207e-014
lhumerus -55.0062 -48.344 130.001
lradius 89.9068
lwrist 75.0205
lhand -5.41367 4.53793
lfingers 7.12502
lthumb 20.3959 33.4868
rfemur -0.232087 23.8298 27.1973
rtibia 4.00639
rfoot -14.0265 -22.0902
rtoes 0.678301
lfemur 9.32679 -41.2652 -13.7454
ltibia -4.08175
lfoot -21.0885 48.1975
ltoes 5.48647
